<svg width="109" height="34" viewBox="0 0 109 34" fill="none" xmlns="http://www.w3.org/2000/svg">
<path fill-rule="evenodd" clip-rule="evenodd" d="M84.0261 8.99998L84.0261 33L78.0261 33L78.0261 8.99998L84.0261 8.99998Z" fill="white"/>
<path fill-rule="evenodd" clip-rule="evenodd" d="M108.026 8.99998L108.026 33L102.026 33L102.026 8.99998L108.026 8.99998Z" fill="white"/>
<path d="M96.0183 9H99.0261V15H96.0183L96.0183 33H90.0183L90.0183 15H87.0261V9H90.0183V8.99609C90.0209 6.9711 90.5381 5.25363 91.4657 3.8649C92.3808 2.49496 93.5782 1.61903 94.6842 1.06637C95.7785 0.519554 96.8364 0.261032 97.5954 0.134552C97.982 0.070129 98.3108 0.0367542 98.5546 0.0193401C98.677 0.0105969 98.7795 0.00577507 98.8588 0.00313148C98.8985 0.00180778 98.9325 0.00102576 98.9605 0.000571814L98.998 0.000117863L99.0132 2.63097e-05L99.0231 0C99.0231 0 99.0261 0 99.0261 3C99.0261 6 99.029 6 99.029 6L99.0317 5.99999L99.0368 5.99998L99.0456 5.99993L99.0573 5.99979L99.0616 5.99971L99.0587 5.9998C99.0501 6.00009 99.0237 6.00112 98.982 6.0041C98.8977 6.01012 98.7576 6.02362 98.5816 6.05295C98.2154 6.11397 97.7727 6.23045 97.3661 6.43363C96.9712 6.63097 96.6671 6.88003 96.455 7.1976C96.2557 7.49597 96.0202 8.02748 96.0183 9Z" fill="white"/>
<path fill-rule="evenodd" clip-rule="evenodd" d="M5.02612 22L5.02612 9L11.0261 9L11.0261 22C11.0261 24.5247 10.3862 26.6176 9.27223 28.2885C8.17082 29.9405 6.72379 31.0045 5.36805 31.6826C4.02404 32.3548 2.71633 32.6761 1.76992 32.834C1.28961 32.9142 0.88278 32.9554 0.584295 32.9768C0.434545 32.9876 0.310587 32.9934 0.216621 32.9965C0.169593 32.9981 0.129939 32.999 0.0981761 32.9996L0.0564586 33.0001L0.0401221 33.0002L0.0331031 33.0002L0.0298825 33.0002C0.0298825 33.0002 0.0268565 33.0002 0.026124 30.0002C0.0253914 27.0002 0.0225495 27.0002 0.0225495 27.0002L0.0198773 27.0002L0.0150412 27.0002L0.00738699 27.0003L-2.78234e-05 27.0004C-2.78234e-05 27.0004 0.00347598 27.0006 0.0150412 27.0002C0.0382632 26.9995 0.0864552 26.9971 0.155454 26.9922C0.294469 26.9822 0.512644 26.9609 0.78233 26.9158C1.33591 26.8235 2.0282 26.6444 2.68419 26.3163C3.32846 25.9941 3.88143 25.558 4.28002 24.9601C4.66605 24.3811 5.02612 23.4745 5.02612 22Z" fill="white"/>
<path d="M72.0261 15L72.0262 24.9998C72.0262 25.5982 72.1877 25.8675 72.3062 26.0156C72.4623 26.2107 72.7379 26.4208 73.1804 26.6052C73.6201 26.7885 74.1016 26.8945 74.5022 26.9503C74.6947 26.9771 74.85 26.9897 74.9475 26.9955C74.9958 26.9984 75.0282 26.9997 75.0426 27.0001L75.0359 27.0001L75.0318 27L75.0295 27C75.0295 27 75.0272 27 75.0262 30C75.0252 33 75.0227 33 75.0227 33L75.02 33L75.0143 33L75.001 32.9999L74.9677 32.9996C74.9425 32.9992 74.9113 32.9986 74.8746 32.9976C74.8011 32.9955 74.705 32.9918 74.5892 32.9848C74.3586 32.971 74.0452 32.9445 73.6752 32.893C72.9507 32.7922 71.9322 32.5853 70.8719 32.1433C69.8144 31.7025 68.59 30.9749 67.6211 29.7639C66.6146 28.5059 66.0262 26.9006 66.0262 24.9998L66.0261 15H63.0261V9H66.0261L66.0261 6.97313e-06L72.0261 0L72.0261 9H75.0261V15H72.0261Z" fill="white"/>
<path d="M75.0502 27.0002C75.0527 27.0002 75.0498 27.0003 75.0426 27.0001L75.0502 27.0002Z" fill="white"/>
<path d="M20.0261 8.99316C20.0261 8.99316 20.0261 13.999 20.0261 22C20.0261 30.001 28.0261 30 28.0261 30C28.0261 30 36.0261 30.0028 36.0261 22C36.0261 13.9972 36.0261 8.99317 36.0261 8.99317" stroke="white" stroke-width="6"/>
<path d="M14 9V15H16.9739L16.9739 22.0068C16.9739 24.532 17.6137 26.6252 18.7277 28.2963C19.8292 29.9486 21.2764 31.0127 22.6324 31.6906C23.9766 32.3626 25.2845 32.6836 26.231 32.8412C26.7114 32.9212 27.1182 32.9624 27.4167 32.9837C27.5665 32.9943 27.6905 33.0001 27.7845 33.0032C27.8315 33.0048 27.8712 33.0057 27.9029 33.0062C27.9266 33.0065 27.9502 33.0066 27.9739 33.0066L40.9739 33.0068V27.0068H37.9444C38.6067 25.5853 38.9739 23.92 38.9739 22.0068V9H32.9739V22.0068C32.9739 23.4828 32.6136 24.39 32.2276 24.969C31.8292 25.5668 31.2765 26.0026 30.6326 26.3244C29.977 26.6521 29.2849 26.8308 28.7315 26.9229C28.4619 26.9678 28.2438 26.989 28.1049 26.9989C28.0442 27.0032 27.9998 27.0053 27.9742 27.0062C27.9486 27.0053 27.9042 27.0032 27.8435 26.9989C27.7045 26.9889 27.4864 26.9677 27.2168 26.9227C26.6633 26.8306 25.9712 26.6517 25.3154 26.3239C24.6714 26.0019 24.1186 25.566 23.7201 24.9682C23.3341 24.3892 22.9739 23.4822 22.9739 22.0068L22.9739 9H14Z" fill="white"/>
<path d="M5.02612 0H8.02612L11.0261 3V6H5.02612V0Z" fill="white"/>
<path d="M78.0261 0H81.0261L84.0261 3V6H78.0261V0Z" fill="white"/>
<path d="M102.026 0H104.53L108.034 3V6H102.026V0Z" fill="white"/>
<path fill-rule="evenodd" clip-rule="evenodd" d="M50.3949 17.4342C50.636 17.6667 51.1664 18 52.25 18C54.6664 18 56.761 18.7917 58.2699 20.2467C59.7578 21.6815 60.5 23.5981 60.5 25.5C60.5 27.4019 59.7578 29.3185 58.2699 30.7533C56.761 32.2083 54.6664 33 52.25 33H44.25V27H52.25C53.3337 27 53.864 26.6667 54.1051 26.4342C54.3672 26.1815 54.5 25.8481 54.5 25.5C54.5 25.1519 54.3672 24.8185 54.1051 24.5658C53.864 24.3333 53.3336 24 52.25 24C49.8337 24 47.739 23.2082 46.2301 21.7532C44.7422 20.3185 44 18.4019 44 16.5C44 14.5981 44.7421 12.6815 46.2301 11.2467C47.739 9.79171 49.8336 9 52.25 9H60.25V15H52.25C51.1663 15 50.636 15.3333 50.3949 15.5658C50.1328 15.8185 50 16.1519 50 16.5C50 16.848 50.1328 17.1814 50.3949 17.4342Z" fill="white"/>
</svg>
