<svg width="1320" height="283" viewBox="0 0 1320 283" fill="none" xmlns="http://www.w3.org/2000/svg">
<path d="M54.4456 282.959L0.000156139 188.656L108.891 188.656L54.4456 282.959Z" fill="white"/>
<path d="M231.045 0.299634L340.56 0L177.891 282.906H69.0005L231.045 0.299634Z" fill="#3460FE"/>
<path d="M391.477 282C381.868 282 373.338 281.019 365.886 279.056C358.434 277.29 351.473 274.935 345.001 271.992L359.415 236.079C365.69 238.827 370.985 240.593 375.299 241.378C379.809 242.163 384.025 242.555 387.947 242.555C396.968 242.555 403.145 240.397 406.478 236.079C410.008 231.958 411.773 224.893 411.773 214.885V118.923H355.885V79.478H462.367V213.119C462.367 222.146 461.288 230.781 459.131 239.023C456.974 247.265 453.15 254.526 447.659 260.806C442.364 267.282 435.109 272.384 425.892 276.113C416.872 280.037 405.4 282 391.477 282ZM435.305 59.4614C425.892 59.4614 418.146 56.8121 412.067 51.5135C405.988 46.0188 402.949 38.8559 402.949 30.025C402.949 21.1941 405.988 14.0313 412.067 8.53653C418.146 2.84551 425.892 0 435.305 0C444.718 0 452.464 2.84551 458.543 8.53653C464.622 14.0313 467.661 21.1941 467.661 30.025C467.661 38.8559 464.622 46.0188 458.543 51.5135C452.464 56.8121 444.718 59.4614 435.305 59.4614Z" fill="white"/>
<path d="M529.317 230.192C512.845 230.192 500.981 224.795 493.725 214.002C486.47 203.012 482.842 188.392 482.842 170.142V79.478H533.435V163.666C533.435 171.908 534.514 177.893 536.671 181.622C539.024 185.351 543.534 187.215 550.202 187.215C554.516 187.215 558.242 186.43 561.379 184.86C564.713 183.094 568.341 179.561 572.263 174.263V79.478H622.856V226.66H581.676L578.146 207.232H576.969C570.694 214.296 563.733 219.889 556.085 224.01C548.633 228.131 539.711 230.192 529.317 230.192Z" fill="white"/>
<path d="M713.339 230.192C700.593 230.192 687.748 228.033 674.806 223.716C662.059 219.399 650.98 214.1 641.567 207.82L662.746 176.618C672.158 182.113 681.767 186.234 691.572 188.981C701.377 191.729 710.986 193.102 720.399 193.102C726.87 193.102 731.478 192.317 734.224 190.747C737.165 189.177 738.636 187.019 738.636 184.271C738.636 182.505 738.048 181.033 736.871 179.856C735.89 178.678 734.126 177.697 731.576 176.912C729.223 175.931 725.889 175.048 721.575 174.263C717.457 173.282 712.359 172.104 706.28 170.731C696.082 168.572 687.454 166.021 680.394 163.077C673.531 159.937 667.844 156.405 663.334 152.48C659.02 148.555 655.882 144.238 653.921 139.528C651.96 134.622 650.98 129.324 650.98 123.632C650.98 116.372 652.647 109.797 655.98 103.91C659.314 98.0229 664.02 93.0187 670.099 88.8977C676.178 84.7766 683.532 81.6367 692.16 79.478C700.789 77.1231 710.398 75.9457 720.987 75.9457C734.91 75.9457 747.264 78.2025 758.05 82.716C769.031 87.0334 778.444 91.645 786.288 96.5511L763.933 126.576C756.285 122.063 748.343 118.726 740.107 116.568C731.87 114.213 723.928 113.035 716.281 113.035C711.574 113.035 707.848 113.722 705.103 115.096C702.358 116.47 700.985 118.53 700.985 121.278C700.985 122.848 701.475 124.123 702.456 125.104C703.632 126.086 705.397 127.067 707.75 128.048C710.103 128.833 713.241 129.618 717.163 130.403C721.085 131.188 725.889 132.267 731.576 133.641C742.558 136.192 751.676 138.939 758.932 141.883C766.384 144.827 772.267 148.261 776.581 152.186C781.091 155.914 784.229 160.232 785.994 165.138C787.759 169.848 788.641 175.244 788.641 181.328C788.641 188.196 786.974 194.672 783.64 200.756C780.503 206.643 775.698 211.843 769.227 216.357C762.952 220.674 755.108 224.108 745.695 226.66C736.479 229.015 725.693 230.192 713.339 230.192Z" fill="white"/>
<path d="M903.244 230.192C891.086 230.192 880.79 228.622 872.358 225.482C864.122 222.342 857.357 217.927 852.062 212.236C846.963 206.349 843.238 199.382 840.884 191.336C838.531 183.094 837.355 174.067 837.355 164.255V118.923H802.057V81.2442L839.708 79.478L846.179 35.3236H887.948V79.478H946.189V118.923H887.948V163.372C887.948 173.969 890.301 181.23 895.008 185.154C899.91 188.883 907.068 190.747 916.48 190.747C921.579 190.747 926.285 190.355 930.6 189.57C935.11 188.589 939.326 187.411 943.248 186.037L952.072 222.539C945.601 224.305 938.345 225.973 930.305 227.543C922.265 229.309 913.245 230.192 903.244 230.192Z" fill="white"/>
<path d="M1014.32 226.66V118.923H958.429V79.478H1064.91V226.66H1014.32ZM1037.85 59.4614C1028.44 59.4614 1020.69 56.8121 1014.61 51.5135C1008.53 46.0188 1005.49 38.8559 1005.49 30.025C1005.49 21.1941 1008.53 14.0313 1014.61 8.53653C1020.69 2.84551 1028.44 0 1037.85 0C1047.26 0 1055.01 2.84551 1061.09 8.53653C1067.17 14.0313 1070.2 21.1941 1070.2 30.025C1070.2 38.8559 1067.17 46.0188 1061.09 51.5135C1055.01 56.8121 1047.26 59.4614 1037.85 59.4614Z" fill="white"/>
<path d="M1113.62 226.66V118.923H1075.97V81.2442L1113.62 79.478V78.8893C1113.62 70.6471 1114.9 62.8956 1117.45 55.6346C1120 48.1774 1124.02 41.7014 1129.51 36.2067C1135.19 30.7119 1142.25 26.3946 1150.69 23.2547C1159.31 19.9186 1169.71 18.2505 1181.87 18.2505C1190.69 18.2505 1198.93 19.1336 1206.57 20.8998C1214.42 22.4697 1221.28 24.1378 1227.17 25.904L1217.75 62.9937C1213.63 61.4238 1209.03 60.1482 1203.93 59.167C1198.83 58.1858 1193.63 57.6952 1188.34 57.6952C1180.3 57.6952 1174.22 59.2651 1170.1 62.405C1166.18 65.5448 1164.22 71.0396 1164.22 78.8893V79.478H1210.69V118.923H1164.22V226.66H1113.62Z" fill="white"/>
<path d="M1264.11 226.66V118.923H1208.22V79.478H1314.71V226.66H1264.11ZM1287.64 59.4614C1278.23 59.4614 1270.49 56.8121 1264.41 51.5135C1258.33 46.0188 1255.29 38.8559 1255.29 30.025C1255.29 21.1941 1258.33 14.0313 1264.41 8.53653C1270.49 2.84551 1278.23 0 1287.64 0C1297.06 0 1304.8 2.84551 1310.88 8.53653C1316.96 14.0313 1320 21.1941 1320 30.025C1320 38.8559 1316.96 46.0188 1310.88 51.5135C1304.8 56.8121 1297.06 59.4614 1287.64 59.4614Z" fill="white"/>
</svg>
