<svg width="451" height="65" viewBox="0 0 451 65" fill="none" xmlns="http://www.w3.org/2000/svg">
<path d="M16.504 64.1519C14.072 64.1519 11.896 63.7679 9.97596 62.9999C8.05596 62.2959 6.42396 61.3039 5.07996 60.0239C3.73596 58.6799 2.67996 57.1439 1.91196 55.4159C1.20796 53.6879 0.855957 51.7999 0.855957 49.7519C0.855957 47.0639 1.43196 44.7279 2.58396 42.7439C3.73596 40.6959 5.55996 38.9679 8.05596 37.5599C10.616 36.1519 13.88 35.0319 17.848 34.1999C21.816 33.3039 26.616 32.6959 32.248 32.3759C31.992 30.1999 31.032 28.5039 29.368 27.2879C27.768 26.0719 25.336 25.4639 22.072 25.4639C19.768 25.4639 17.432 25.8799 15.064 26.7119C12.76 27.4799 10.264 28.5359 7.57596 29.8799L2.58396 20.6639C5.84796 18.8079 9.33596 17.2719 13.048 16.0559C16.824 14.8399 20.76 14.2319 24.856 14.2319C31.512 14.2319 36.76 15.9919 40.6 19.5119C44.44 23.0319 46.36 28.4399 46.36 35.7359V62.9999H34.84L33.784 57.6239H33.4C30.968 59.4799 28.312 61.0479 25.432 62.3279C22.552 63.5439 19.576 64.1519 16.504 64.1519ZM21.016 53.2079C23.128 53.2079 25.112 52.7919 26.968 51.9599C28.824 51.0639 30.584 49.9759 32.248 48.6959V40.8239C28.728 41.0159 25.816 41.3359 23.512 41.7839C21.208 42.2319 19.384 42.8079 18.04 43.5119C16.696 44.1519 15.736 44.9199 15.16 45.8159C14.648 46.7119 14.392 47.6719 14.392 48.6959C14.392 50.2319 14.968 51.3839 16.12 52.1519C17.336 52.8559 18.968 53.2079 21.016 53.2079Z" fill="#2C2F33"/>
<path d="M80.9785 64.1519C76.6905 64.1519 72.4985 63.4479 68.4025 62.0399C64.3065 60.6319 60.7225 58.9039 57.6505 56.8559L63.6985 48.0239C66.6425 49.8799 69.7145 51.2879 72.9145 52.2479C76.1145 53.2079 79.4425 53.6879 82.8985 53.6879C85.5225 53.6879 87.4425 53.3039 88.6585 52.5359C89.8745 51.7679 90.4825 50.8079 90.4825 49.6559C90.4825 49.0159 90.2905 48.4399 89.9065 47.9279C89.5865 47.4159 88.9785 46.9679 88.0825 46.5839C87.2505 46.1359 86.0665 45.7199 84.5305 45.3359C82.9945 44.9519 81.0745 44.5039 78.7705 43.9919C72.3065 42.5839 67.6665 40.6959 64.8505 38.3279C62.0345 35.8959 60.6265 32.8239 60.6265 29.1119C60.6265 26.9359 61.1385 24.9199 62.1625 23.0639C63.1865 21.2079 64.6265 19.6399 66.4825 18.3599C68.4025 17.0799 70.7065 16.0879 73.3945 15.3839C76.0825 14.6159 79.1225 14.2319 82.5145 14.2319C86.8025 14.2319 90.6745 14.9359 94.1305 16.3439C97.6505 17.6879 100.658 19.1599 103.154 20.7599L96.8185 29.2079C94.3865 27.7359 91.8585 26.6159 89.2345 25.8479C86.6105 25.0799 83.9545 24.6959 81.2665 24.6959C79.0265 24.6959 77.3625 25.0479 76.2745 25.7519C75.1865 26.4559 74.6425 27.3519 74.6425 28.4399C74.6425 29.7839 75.4745 30.7439 77.1385 31.3199C78.8025 31.8959 81.6505 32.6319 85.6825 33.5279C89.3305 34.3599 92.3705 35.2559 94.8025 36.2159C97.2345 37.1759 99.1545 38.2639 100.562 39.4799C101.97 40.6959 102.962 42.0719 103.538 43.6079C104.114 45.1439 104.402 46.8719 104.402 48.7919C104.402 50.9679 103.89 52.9839 102.866 54.8399C101.842 56.6959 100.338 58.3279 98.3545 59.7359C96.4345 61.0799 94.0025 62.1679 91.0585 62.9999C88.1785 63.7679 84.8185 64.1519 80.9785 64.1519Z" fill="#2C2F33"/>
<path d="M116.568 62.9999V54.9359C120.92 51.2879 124.888 47.8959 128.472 44.7599C132.056 41.5599 135.128 38.5839 137.688 35.8319C140.248 33.0799 142.232 30.4879 143.64 28.0559C145.048 25.6239 145.752 23.3199 145.752 21.1439C145.752 18.1359 144.888 15.8639 143.16 14.3279C141.432 12.7279 138.968 11.9279 135.768 11.9279C133.336 11.9279 131.096 12.5679 129.048 13.8479C127.064 15.0639 125.208 16.5039 123.48 18.1679L115.896 10.5839C117.496 8.98394 119.064 7.57594 120.6 6.35994C122.2 5.14394 123.864 4.15194 125.592 3.38394C127.384 2.55194 129.24 1.94394 131.16 1.55994C133.144 1.11194 135.32 0.887939 137.688 0.887939C140.888 0.887939 143.8 1.36794 146.424 2.32794C149.048 3.22394 151.288 4.53594 153.144 6.26394C155.064 7.92794 156.536 9.94394 157.56 12.3119C158.648 14.6799 159.192 17.3359 159.192 20.2799C159.192 22.8399 158.584 25.4639 157.368 28.1519C156.152 30.7759 154.488 33.4319 152.376 36.1199C150.328 38.7439 147.96 41.3999 145.272 44.0879C142.584 46.7119 139.768 49.3039 136.824 51.8639C138.552 51.6719 140.408 51.5119 142.392 51.3839C144.44 51.1919 146.264 51.0959 147.864 51.0959H162.36V62.9999H116.568Z" fill="#3460FE"/>
<path d="M176.146 62.9999V51.5759H192.562V16.3439H179.026V7.60794C181.074 7.28794 182.898 6.96794 184.498 6.64794C186.162 6.26394 187.666 5.84794 189.01 5.39994C190.354 4.95194 191.602 4.47194 192.754 3.95994C193.97 3.38394 195.154 2.74394 196.306 2.03994H206.674V51.5759H220.498V62.9999H176.146Z" fill="#3460FE"/>
<path d="M254.925 64.1519C251.405 64.1519 248.205 63.4799 245.325 62.1359C242.445 60.7279 239.981 58.6799 237.933 55.9919C235.885 53.3039 234.285 49.9759 233.133 46.0079C232.045 42.0399 231.501 37.4639 231.501 32.2799C231.501 27.0959 232.045 22.5519 233.133 18.6479C234.285 14.7439 235.885 11.4799 237.933 8.85594C239.981 6.16794 242.445 4.18394 245.325 2.90394C248.205 1.55994 251.405 0.887939 254.925 0.887939C258.445 0.887939 261.645 1.55994 264.525 2.90394C267.405 4.18394 269.869 6.16794 271.917 8.85594C273.965 11.4799 275.533 14.7439 276.621 18.6479C277.773 22.5519 278.349 27.0959 278.349 32.2799C278.349 37.4639 277.773 42.0399 276.621 46.0079C275.533 49.9759 273.965 53.3039 271.917 55.9919C269.869 58.6799 267.405 60.7279 264.525 62.1359C261.645 63.4799 258.445 64.1519 254.925 64.1519ZM254.925 53.2079C256.461 53.2079 257.869 52.8559 259.149 52.1519C260.493 51.4479 261.645 50.2959 262.605 48.6959C263.565 47.0319 264.333 44.8879 264.909 42.2639C265.485 39.5759 265.773 36.2479 265.773 32.2799C265.773 28.3119 265.485 25.0159 264.909 22.3919C264.333 19.7679 263.565 17.6879 262.605 16.1519C261.645 14.5519 260.493 13.4319 259.149 12.7919C257.869 12.1519 256.461 11.8319 254.925 11.8319C253.389 11.8319 251.949 12.1519 250.605 12.7919C249.325 13.4319 248.205 14.5519 247.245 16.1519C246.285 17.6879 245.517 19.7679 244.941 22.3919C244.365 25.0159 244.077 28.3119 244.077 32.2799C244.077 36.2479 244.365 39.5759 244.941 42.2639C245.517 44.8879 246.285 47.0319 247.245 48.6959C248.205 50.2959 249.325 51.4479 250.605 52.1519C251.949 52.8559 253.389 53.2079 254.925 53.2079Z" fill="#3460FE"/>
<path d="M310.855 64.1519C305.543 64.1519 301.032 63.3519 297.32 61.7519C293.672 60.0879 290.6 58.0399 288.104 55.6079L294.439 46.6799C296.487 48.3439 298.663 49.7839 300.967 50.9999C303.335 52.1519 305.959 52.7279 308.839 52.7279C312.295 52.7279 315.111 51.9279 317.287 50.3279C319.527 48.7279 320.647 46.3599 320.647 43.2239C320.647 40.1519 319.591 37.8159 317.479 36.2159C315.431 34.6159 312.776 33.8159 309.512 33.8159C308.488 33.8159 307.559 33.8799 306.727 34.0079C305.959 34.0719 305.191 34.2319 304.423 34.4879C303.655 34.7439 302.855 35.0639 302.023 35.4479C301.191 35.8319 300.264 36.3119 299.24 36.8879L292.999 32.8559L294.632 2.03994H331.975V13.9439H306.824L305.768 25.3679C307.176 24.8559 308.487 24.5039 309.703 24.3119C310.919 24.0559 312.295 23.9279 313.831 23.9279C316.647 23.9279 319.303 24.3119 321.799 25.0799C324.359 25.8479 326.6 26.9999 328.52 28.5359C330.44 30.0719 331.943 32.0239 333.031 34.3919C334.183 36.7599 334.759 39.5759 334.759 42.8399C334.759 46.2319 334.087 49.2399 332.743 51.8639C331.463 54.4879 329.704 56.7279 327.464 58.5839C325.288 60.3759 322.76 61.7519 319.88 62.7119C317 63.6719 313.991 64.1519 310.855 64.1519Z" fill="#3460FE"/>
<path d="M370.05 64.1519C366.53 64.1519 363.33 63.4799 360.45 62.1359C357.57 60.7279 355.106 58.6799 353.058 55.9919C351.01 53.3039 349.41 49.9759 348.258 46.0079C347.17 42.0399 346.626 37.4639 346.626 32.2799C346.626 27.0959 347.17 22.5519 348.258 18.6479C349.41 14.7439 351.01 11.4799 353.058 8.85594C355.106 6.16794 357.57 4.18394 360.45 2.90394C363.33 1.55994 366.53 0.887939 370.05 0.887939C373.57 0.887939 376.77 1.55994 379.65 2.90394C382.53 4.18394 384.994 6.16794 387.042 8.85594C389.09 11.4799 390.658 14.7439 391.746 18.6479C392.898 22.5519 393.474 27.0959 393.474 32.2799C393.474 37.4639 392.898 42.0399 391.746 46.0079C390.658 49.9759 389.09 53.3039 387.042 55.9919C384.994 58.6799 382.53 60.7279 379.65 62.1359C376.77 63.4799 373.57 64.1519 370.05 64.1519ZM370.05 53.2079C371.586 53.2079 372.994 52.8559 374.274 52.1519C375.618 51.4479 376.77 50.2959 377.73 48.6959C378.69 47.0319 379.458 44.8879 380.034 42.2639C380.61 39.5759 380.898 36.2479 380.898 32.2799C380.898 28.3119 380.61 25.0159 380.034 22.3919C379.458 19.7679 378.69 17.6879 377.73 16.1519C376.77 14.5519 375.618 13.4319 374.274 12.7919C372.994 12.1519 371.586 11.8319 370.05 11.8319C368.514 11.8319 367.074 12.1519 365.73 12.7919C364.45 13.4319 363.33 14.5519 362.37 16.1519C361.41 17.6879 360.642 19.7679 360.066 22.3919C359.49 25.0159 359.202 28.3119 359.202 32.2799C359.202 36.2479 359.49 39.5759 360.066 42.2639C360.642 44.8879 361.41 47.0319 362.37 48.6959C363.33 50.2959 364.45 51.4479 365.73 52.1519C367.074 52.8559 368.514 53.2079 370.05 53.2079Z" fill="#3460FE"/>
<path d="M427.517 64.1519C423.997 64.1519 420.828 63.7679 418.012 62.9999C415.196 62.1679 412.797 61.0159 410.812 59.5439C408.829 58.0719 407.292 56.3119 406.204 54.2639C405.18 52.2159 404.668 49.9439 404.668 47.4479C404.668 45.5919 404.957 43.9279 405.533 42.4559C406.173 40.9199 407.005 39.5439 408.029 38.3279C409.117 37.1119 410.332 36.0239 411.676 35.0639C413.084 34.1039 414.589 33.2399 416.189 32.4719V32.0879C413.629 30.2959 411.484 28.2799 409.757 26.0399C408.093 23.7359 407.26 20.9519 407.26 17.6879C407.26 15.1279 407.773 12.8239 408.797 10.7759C409.821 8.66394 411.229 6.87194 413.021 5.39994C414.877 3.92794 417.085 2.80794 419.645 2.03994C422.205 1.27194 424.988 0.887939 427.996 0.887939C431.068 0.887939 433.821 1.30394 436.253 2.13594C438.749 2.90394 440.861 4.02394 442.589 5.49594C444.316 6.90394 445.629 8.66394 446.525 10.7759C447.485 12.8239 447.965 15.0959 447.965 17.5919C447.965 20.4719 447.1 23.0319 445.372 25.2719C443.708 27.5119 441.66 29.3999 439.228 30.9359V31.3199C440.828 32.0879 442.333 32.9839 443.741 34.0079C445.149 34.9679 446.364 36.0879 447.388 37.3679C448.412 38.6479 449.212 40.1199 449.788 41.7839C450.364 43.3839 450.652 45.2079 450.652 47.2559C450.652 49.6879 450.14 51.9279 449.116 53.9759C448.092 56.0239 446.588 57.8159 444.604 59.3519C442.684 60.8239 440.285 62.0079 437.405 62.9039C434.525 63.7359 431.229 64.1519 427.517 64.1519ZM431.741 27.4799C434.813 24.7279 436.349 21.7519 436.349 18.5519C436.349 16.1839 435.613 14.2959 434.141 12.8879C432.669 11.4159 430.524 10.6799 427.708 10.6799C425.468 10.6799 423.548 11.2559 421.948 12.4079C420.412 13.5599 419.645 15.3199 419.645 17.6879C419.645 20.1839 420.764 22.1359 423.004 23.5439C425.244 24.9519 428.157 26.2639 431.741 27.4799ZM427.9 54.3599C430.78 54.3599 433.084 53.7519 434.812 52.5359C436.604 51.2559 437.5 49.3359 437.5 46.7759C437.5 45.3679 437.148 44.1839 436.444 43.2239C435.74 42.2639 434.716 41.3999 433.372 40.6319C432.092 39.7999 430.556 39.0639 428.764 38.4239C426.972 37.7199 424.989 36.9519 422.812 36.1199C421.085 37.3999 419.644 38.8399 418.492 40.4399C417.404 42.0399 416.861 43.8319 416.861 45.8159C416.861 48.5039 417.917 50.6159 420.029 52.1519C422.141 53.6239 424.764 54.3599 427.9 54.3599Z" fill="#3460FE"/>
</svg>
